<svg version="1" xmlns="http://www.w3.org/2000/svg" width="177.333" height="177.333" viewBox="0 0 133.000000 133.000000"><path d="M64.5 4.3c-.4 1.3-.5 3.9-.3 5.8.2 2.7.8 3.5 2.6 3.7 2.2.3 2.3.1 2-5.5-.2-4.5-.7-5.9-2-6.1-1.1-.2-1.9.5-2.3 2.1zM38 10c-1.3.8-1.2 1.6.9 5.6 2.6 4.9 4.8 6.5 6.1 4.4 1.1-1.8.2-4.4-2.8-7.9-2.1-2.4-3.1-2.9-4.2-2.1zM90 13.7c-2.7 4.2-2.8 4.9-1.5 6.2 1.3 1.3 1.7 1.3 3.4-.3C95.7 16.2 97.1 9 94 9c-.6 0-2.4 2.1-4 4.7zM54.5 24.1c-7 2.5-10.7 4.9-15.6 10.2-7.2 7.6-10.3 16.7-9.8 28.3.5 10.6 3.9 17.4 13.5 27.3 4 4.1 8.2 9.6 9.5 12.3l2.2 4.8H65V95.5l-8-8-8-8V69.2c0-9.9-.1-10.5-2.5-12.4-4.8-3.8-2.1-11.1 4.2-11.1 3 0 6.3 3.4 6.3 6.5 0 1-1.1 3-2.5 4.4C52.2 58.9 52 59.8 52 69v9.8l6.3 5.7 6.2 5.7.3-11.2c.3-10.8.2-11.3-2.3-13.7-3.3-3.3-3.2-6.6.2-9.3 6.9-5.4 14 3.4 7.8 9.6-2.1 2-2.5 3.5-2.5 7.9 0 3 .4 5.5 1 5.5.5 0 3-1 5.5-2.2l4.5-2.2V62.5c0-10.9-.2-12.1-2-13.3-2.6-1.6-2.7-7.3-.2-9.5 2.4-2.2 6.5-2.1 8.5.1 2.4 2.6 2.2 7.9-.3 9.4-1.8 1.2-2 2.4-2 14V76l-7.5 3.7-7.5 3.7V106h5.9c5.9 0 5.9 0 7.1-3.6.7-2.1 4.7-7.2 9.5-12.3 4.6-4.9 9-10.3 10-12 10.2-19.8 2-43.6-18.3-52.9-7.9-3.6-19.3-4.1-27.7-1.1zM18 30.5c-1.6 2-.2 3.6 5.1 6 3.4 1.6 4.2 1.7 4.9.5 1.1-1.8-.4-3.6-5.1-6-3.2-1.7-3.9-1.8-4.9-.5zM110 30.8c-4.2 2.3-5.9 4.7-4.3 6.3 1.6 1.6 9.8-3 9.8-5.5 0-2.7-1.5-2.9-5.5-.8z"/><path d="M78.7 41.6c-1.2 1.2-.8 4.1.8 5.4 2 1.7 4.7-.5 4.3-3.4-.3-2.1-3.7-3.4-5.1-2zM48.5 49.4C46.3 51 47.4 55 49.9 55c2.4 0 4.3-2.3 3.5-4.3-.8-2.2-2.9-2.8-4.9-1.3zM11.3 56.7c-.7.3-1.3 1.3-1.3 2.4 0 1.7.8 1.9 6 1.9 5.3 0 6-.2 6-2 0-1.1-.3-2.1-.7-2.1-2.9-.5-9-.6-10-.2zM112.4 57.4c-2.8 2.1-.7 3.6 5.1 3.6 3.7 0 5.5-.4 5.9-1.5 1.1-3-7.5-4.6-11-2.1zM64.6 58.6c-1.9 1.9-1.7 3.3.7 4.8 1.3.8 2.1.6 3.4-.7 1.3-1.3 1.5-2.1.7-3.4-1.5-2.4-2.9-2.6-4.8-.7zM21.3 82.6c-4.6 2.7-4.8 3.1-3.3 5.4.7 1.2 1.5 1.1 5.2-1 4.9-2.7 5.8-3.7 5.1-5.7-.7-1.9-2.2-1.6-7 1.3zM105.7 80.7c-1.6 1.5-.4 3.4 3.8 5.8 2.4 1.5 4.9 2.4 5.5 2 2.1-1.3.8-4.1-3-6.3-4.1-2.3-5.3-2.6-6.3-1.5zM41.2 98.2c-.5.7-1.7 2.8-2.6 4.6-1.4 2.6-1.5 3.7-.5 4.8 1.5 1.8 3.4.4 5.8-4.5 1.9-3.8 1.8-6.1-.4-6.1-.7 0-1.7.6-2.3 1.2zM88 98.5c0 3.2 4 9.5 6 9.5 2.6 0 2.5-2.3-.2-7.1-2.2-3.9-5.8-5.4-5.8-2.4zM53.4 111.4c-.3.7-.4 3.8-.2 6.7.3 4.8.6 5.4 2.6 5.7 1.3.2 2.8 1.4 3.4 2.8.6 1.3 1.6 2.5 2.2 2.5 8.7 1 12.1.2 13.1-3 .3-1.1 1.6-2.1 2.8-2.3 2-.3 2.2-1 2.5-7.1l.3-6.7H67c-10.1 0-13.2.3-13.6 1.4z"/></svg>