<svg version="1" xmlns="http://www.w3.org/2000/svg" width="1544" height="1544" viewBox="0 0 1158.000000 1158.000000"><path d="M813.5.8c-1.7 1.7-11.5 23.8-11.1 24.9.3.7 1.3 1.3 2.2 1.3.9 0 4.9 1.2 8.8 2.6 3.9 1.4 7.8 2.7 8.6 2.9 3.3.9 10.6 3.7 11.3 4.5.5.4-.3 6.3-1.7 13.1-1.5 6.8-2.8 13.3-3 14.4-.3 1.1-1.6 7.4-3 14s-2.8 13.2-3.1 14.7c-.5 2.9-1.1 5.6-2.1 9.8-.3 1.4-.7 3.8-1 5.5-.3 1.6-.7 3.7-1 4.5-.3.8-.8 2.6-1 4-.2 1.4-.9 4.7-1.5 7.5-.6 2.7-1.2 6-1.5 7.1-.2 1.2-1.3 6.6-2.5 12-1.2 5.5-2.2 10.8-2.4 11.9-.2 1.1-1.3 6.4-2.5 11.9-1.2 5.4-2.3 10.8-2.6 12-.2 1.1-1 5.2-1.8 9.1-.9 3.8-1.8 8.1-2 9.5-.3 1.4-.8 3.6-1.1 5-.3 1.4-.8 4.1-1.1 6-.3 1.9-.7 3.6-.8 3.8-.5.5-15.7 3-19.1 3.1-1.5.1-2.1.8-2.1 2.3-.1 1.3-.4 5.2-.9 8.8-1 8.7-1.4 11.6-1.9 17.4-.3 4.1-1 5.5-4.5 9-2.8 2.7-4.4 3.7-4.9 2.9-.7-1.1-14.6 12.4-109.7 106.5-17.4 17.2-32 31-32.5 30.7-.5-.3-2.1-.7-3.7-.9-1.5-.2-6.2-1.1-10.3-2-4.1-.8-8.6-1.7-10-2-1.4-.2-6.1-1.2-10.5-2.1-4.4-.9-8.8-1.9-9.8-2.1-1-.2-2.6-.5-3.5-.8-.9-.3-3.3-.8-5.2-1-1.9-.3-6.5-1.2-10.1-2-3.6-.8-7.9-1.7-9.5-2-1.6-.3-8.3-1.6-14.9-3s-13.1-2.7-14.5-3c-4.5-.8-7.4-2.4-12.2-6.8-2.6-2.4-6.4-5.7-8.4-7.3-2-1.7-5.5-4.6-7.8-6.5-2.3-1.9-4.3-3.5-4.5-3.7-.2-.1-.5-1.5-.7-3.1-.2-1.6-.7-5.5-1.2-8.6-.8-5-.7-5.9 1.5-9 1.2-1.9 2.3-4 2.3-4.5 0-.6.4-1.1.9-1.1s1.4-1.4 2.1-3c.7-1.7 1.6-3 2.1-3s.9-.4.9-1c0-.5 2.9-5.4 6.4-10.7 11.5-17.7 20.6-32.3 20.6-33.2 0-1.1-48.8-98.1-50.2-99.8-.5-.6-1.1-3.6-1.4-6.5-.2-2.9-.6-6.7-.8-8.5-.2-1.7-6.4-16.1-13.8-32-7.3-15.8-13.3-29-13.3-29.3-.1-.3-1.3-2.8-2.8-5.7-2.5-4.9-2.8-5.1-5.5-4.3-1.6.4-3.9 1.3-5.1 1.9-1.1.7-2.1.9-2.1.5 0-.3-.6-.2-1.2.4-.7.6-7.6 3.3-15.3 6.2-7.7 2.8-15.3 5.7-17 6.4-1.6.8-4.1 1.7-5.5 2.1-1.4.4-3.8 1.3-5.5 2-3.1 1.3-6.2 2.4-7 2.5-.3 0-3 1.1-6 2.5-3.1 1.3-5.8 2.4-6 2.5-.7.1-1.8.5-12.4 4.5-8.1 3.1-16.9 8.3-17.9 10.7-.2.5-1 .8-1.8.8s-1.4.4-1.4.8c0 .5-1.8 2.1-4.1 3.8-2.2 1.6-5.1 3.8-6.4 4.9-1.3 1.2-3.8 3.2-5.6 4.5-1.8 1.4-7 5.5-11.6 9.2-4.6 3.8-8.5 6.8-8.7 6.8-.4 0-3.1 2.1-9.6 7.7-2 1.8-4 3.3-4.4 3.3-.4 0-1.7 1.1-3 2.5s-2.8 2.5-3.4 2.5c-1.7 0-3.1 3.2-3.7 8.2-.2 2.3-.7 5.4-1 6.8-1.8 9-2.5 12.8-3 17.5-.3 2.2-.7 5.1-1 6.5-.3 1.4-.8 3.8-1 5.5-.6 3.7-1.1 7.2-2.5 15-.6 3.3-1.3 7.6-1.6 9.5-.2 1.9-.7 4.6-1 6-.7 3.9-1.7 10.4-1.7 11.7 0 .7-.4 1.3-.9 1.3s-.6.4-.3 1c.3.5.1 3.8-.6 7.2-.6 3.5-1.3 7.6-1.6 9.3-.2 1.6-1.1 6.8-2 11.5-.8 4.7-1.6 9.6-1.8 11-.4 3.5-1.4 10.1-2 13-2.2 10.5-2.2 11.1-.2 15.1.8 1.9 4.7 11.3 8.7 20.9 3.9 9.6 7.9 19.3 8.9 21.5 1 2.2 3.3 7.5 5.1 11.7 1.8 4.3 3.7 7.8 4.2 7.8s.6-.6.1-1.3c-.4-.6-.9-2.3-1-3.7-.1-1.4-.4-4.5-.7-7-.7-6.2-2.2-20.1-3.1-29.5-.9-8.6-1.6-15.1-2-17.6-.3-1.8.3-3.4 1.8-5.1 1.2-1.3 4.9-5.5 8.2-9.2 3.3-3.7 8-8.9 10.3-11.4 2.4-2.6 6.2-6.9 8.4-9.5 2.3-2.6 4.4-4.6 4.9-4.5.7.3 9.4 8 17.8 15.8 6.9 6.4 22.5 20.6 26.9 24.5 2.3 2 4.2 4.1 4.2 4.5 0 .5-1.5 2.4-3.2 4.2-1.8 1.9-8.2 8.8-14.3 15.3-6 6.5-13.6 14.6-16.8 17.9-5.7 5.9-8.6 11.7-14 27.6-.8 2.5-2.1 5.8-2.8 7.5-.7 1.6-1.3 3.4-1.5 4-.1.5-3.2 9.1-6.9 19-9.2 24.8-10.6 28.7-11.6 31-.5 1.1-2.2 5.6-3.8 10-5 13.9-10.1 27.9-10.8 29.5-.3.8-.7 1.7-.8 2-.1.7-4.4 12.1-5.2 14-.3.8-.7 1.7-.8 2-.8 3.2-3 8.8-3.9 9.9-.6.8-1 1.7-1 2 .1.6-.3 2.3-1.3 5.1-.4.8-.7 1.9-.8 2.5-.3.9-2.9 7.8-5 13-.4 1.1-.9 2.4-1.1 3-.1.5-1.4 4.1-2.9 8-1.5 3.8-2.8 7.4-3 8-.1.5-.5 1.7-.8 2.5-1.2 2.9-14.8 39.5-16.4 44-.8 2.5-2 5.6-2.6 7-.5 1.4-1.1 2.9-1.3 3.5-.2.8-6.1 16.8-9 24.5-.3.8-.5 1.6-.4 1.8 0 .1-.7 1.6-1.5 3.2s-1.6 3.3-1.6 3.7c-.1.5-.5 1.7-.9 2.8-.4 1.1-2.2 6-3.9 11-1.8 4.9-3.8 10.3-4.5 12-.8 1.6-3 7.7-5 13.5-2.1 5.8-4.1 11.4-4.6 12.5-4.2 9.4-4.3 9.9-1.7 12 4 3.3 6 4.8 11.2 8.4 2.8 1.9 5.2 3.7 5.5 4 .3.4 2.8 2.2 5.5 4.1 2.8 1.9 5.5 3.9 6.2 4.5.6.5 2.8 2.1 4.8 3.5 4.2 2.9 14.5 10.5 16.2 12 .7.5 1.6 1 2.2 1 .5 0 1.1.3 1.3.8.2.4 3.7 3.2 7.8 6.1 4.1 3 7.7 5.8 7.8 6.3.2.4 1 .8 1.7.8 1.6 0 2.2 1.8 2.9 8.5.3 2.7.8 6.6 1.1 8.5.3 1.9.7 5.7 1 8.5.2 2.7.6 6.1.9 7.5.2 1.4.7 5.3 1 8.6 1.2 13 2.2 15 15.9 32.4.7.8 2.3 3.1 3.7 5 1.3 1.9 3 4.1 3.7 4.8.7.7 1.3 1.7 1.3 2 0 .4 1.2 2 2.6 3.5 2.8 3 2.8 3.7.9 22.7l-2 22c-.2 1.9-.4 3.5-.4 3.5-.1 0-.4 2.2-.6 5-.2 2.7-.6 7.9-1 11.5-.4 3.6-.8 8.5-1 11-.2 2.5-.4 4.5-.5 4.5-.1 0-.3 1.8-.5 4-.3 5.1-1.4 16.8-2.1 22-.2 2.2-.6 6.2-.9 9-.2 2.7-.7 7.9-1 11.5-1.3 15.3-1 14.6-6.3 16-6.3 1.7-21.2 7.4-29.6 11.3-3.8 1.8-7.3 3.1-7.8 2.9-.4-.1-.8.2-.8.8 0 .5-.5 1-1 1-2.3 0-19 11.3-24.6 16.7-5.7 5.4-10.5 11.4-11.1 13.8-.1.5-.9 3.2-1.7 6-.7 2.7-1.2 6.1-.9 7.5.2 1.4.6 3.6.8 4.9 1.8 10.2 17.3 25.7 34 34.1 1.7.8 3.3 1.9 3.7 2.5.4.5.8.7.8.3 0-.3 2.7.7 6.1 2.3 7.3 3.6 23.2 9.9 24.8 9.9.6 0 1.1.5 1.1 1.1 0 .5.4.8 1 .4.5-.3 2.5.1 4.5.9 1.9.8 3.5 1.3 3.5 1.1 0-.2 1.7.3 3.7 1.1 2 .9 4.4 1.7 5.2 1.9.9.2 6.1 1.5 11.6 3 5.5 1.4 11.2 2.8 12.7 3 1.5.2 3.2.6 3.8 1 .6.3 2.3.8 3.8 1.1 1.5.2 5 .9 7.7 1.5 2.8.6 6.6 1.3 8.5 1.6 1.9.2 4.9.8 6.5 1.3 1.7.6 5.1 1.1 7.7 1.2 2.7.2 4.8.5 4.8.8 0 .3.8.6 1.8.6 1.7.1 8.8 1 12.7 1.8 1.1.2 4.7.7 8 1.1 3.2.4 6.8.9 8 1.1 1.1.2 4.5.6 7.5.9 5.3.5 9 .8 19 1.9 4.4.5 11.8 1.1 25 2.1 18 1.4 33.1 1.8 71.5 1.8 38 .1 54-.3 73.5-1.9 3.6-.2 9.2-.7 12.5-.9 3.3-.2 8.7-.7 12-1 3.3-.3 7.8-.8 10-1 11.2-1.1 16.2-1.7 18.5-2 1.4-.2 4.8-.7 7.5-1.1 2.8-.3 5.7-.8 6.6-.9.9-.2 4-.7 7-1.1 3-.4 6.3-.8 7.4-1 1.1-.1 2-.3 2-.4 0-.2 2.3-.6 7.2-1.4 6.7-1 13.3-2.3 14.3-2.6.3-.1.8-.2 1.1-.2.3 0 2.3-.4 4.5-.9 2.1-.5 5.3-1.2 6.9-1.5 1.7-.3 7.5-1.7 13-3.1 5.5-1.4 10.9-2.7 12-3 2.6-.6 3.7-.9 5.5-1.6.8-.3 4.2-1.3 7.5-2.3 3.3-1 6.2-1.8 6.5-1.9.3-.1 2-.6 3.8-1 1.7-.4 3.2-1.1 3.2-1.5 0-.3.6-.7 1.3-.7 1.3 0 19-6.9 22.2-8.6 1.1-.6 2.2-1.2 2.5-1.2.3-.1 3-1.4 6-2.9 16.2-8.3 30.4-20.7 34.9-30.1 3.6-7.7 3.6-16.4 0-24-5.1-10.8-18.9-22.5-37.4-31.8-9.4-4.6-28.5-12.2-38.4-15.2-4.5-1.3-8.5-2.6-9-2.9-.5-.3.2-5.4 1.5-11.3 1.3-6 2.7-12.3 3-14.2.7-4 .6-3.6 3.9-18.1 1.4-6.3 2.8-12.6 3-14 .5-3.2 1.3-6.7 1.9-8.8.5-1.6.9-3.7 2.1-10 .3-1.5 1.2-5.9 2.1-9.7.9-3.9 1.8-8.1 2-9.4.3-1.3 1.2-5.4 2-9 .8-3.6 1.7-7.7 1.9-9.1.3-1.4 1.2-5.7 2.1-9.5.8-3.9 1.6-7.9 1.8-9 .3-1.1 1-4.3 1.6-7 .6-2.8 1.4-6.1 1.6-7.5.3-1.4.9-4.4 1.5-6.8.5-2.3 1.2-5.9 1.5-8 .3-2 .9-4.1 1.2-4.7.3-.5.7-1.6.7-2.5.2-2 1.8-9.5 2.5-11.8.1-.4.2-1 .1-1.4 0-.4.6-3.3 1.4-6.5.8-3.2 1.6-6.9 1.9-8.3.3-1.4 1.4-7 2.6-12.5 1.2-5.5 2.4-11.1 2.6-12.5.3-1.4.9-4.1 1.4-6 .5-1.9 1.1-4.9 1.4-6.5.3-1.7 1.5-7.1 2.6-12 1.2-5 2.1-9.5 2.1-10 0-1-.4-6.2-1.6-21-.4-4.4-.9-9.8-1-12-.2-2.2-.4-4-.5-4 0 0-.3-2.7-.5-6s-.6-8.3-.9-11c-.2-2.8-.8-8.6-1.1-13-.4-4.4-.8-9.8-1-12-.2-2.2-.7-7.6-1-12-.4-4.4-.9-9.8-1-12-.2-2.2-.6-7.2-1-11-.3-3.9-.7-9.3-1-12-.3-2.8-.7-7.9-1-11.5-.2-3.6-.7-8.3-1-10.5-.3-2.2-.7-7.2-1-11-.2-3.9-.7-9.9-1-13.5-.3-3.6-.8-9.4-1.1-13-.3-3.6-.7-8.3-.8-10.5-.2-2.2-.7-8-1.1-13-.4-4.9-.9-9.3-1.2-9.7-.2-.5-.1-1.4.3-2 .5-.7.9-1.9 1-2.8.1-.8.5-2.9.8-4.5.7-3.1.8-3.5 2.1-11.8.4-2.8 1.5-5.3 2.6-6 1-.7 2.8-3.5 3.9-6.3 1.2-2.7 2.9-6.5 3.7-8.4.9-1.9 1.7-3.7 1.8-4 .7-2.1 3.4-8.3 8.3-19 1.1-2.5 3.2-7.3 4.6-10.8 1.5-3.4 4-9.2 5.7-12.9l3-6.5-2.6-12.2c-1.4-6.6-2.8-13.2-3-14.6-.3-1.4-.8-3.6-1.1-5-.3-1.4-.8-3.6-1-5-.3-1.4-.9-4.2-1.5-6.3-.8-3-.6-6.1 1-14 1.1-5.6 2.3-11.6 2.5-13.2.3-1.7.8-4.1 1.1-5.5.3-1.4.8-3.9 1-5.5.3-1.7.8-3.7 1-4.5.2-.8.6-3.3 1-5.5.3-2.2 1-5.6 1.5-7.5.5-1.9 1.1-4.9 1.3-6.5.9-5.7 4-21.4 5.5-28.5.6-2.5 1.3-6.3 1.6-8.5.7-4.3.7-4.4 2.9-14.7.8-3.7 1.3-6.9 1.1-7-.2-.2 1.8-1.5 4.4-2.8 2.6-1.4 4.9-2.7 5.2-3.1.3-.3 1.9-1.4 3.7-2.4 3-1.8 3.1-2 3.2-8.9.1-3.9.1-7.8.1-8.6.1-.8-.1-3.9-.2-6.8-.2-2.8 0-5.2.4-5.2s.3-1.2-.1-2.8c-.4-1.5-.4-3.9 0-5.5.4-1.5.4-2.7.1-2.8-.4 0-1.8-.3-3.2-.6-1.4-.3-3.7-.6-5.2-.7-3.2-.1-3.3-.4-1.3-7.1.9-2.7 1.7-5.9 2-7 .7-3.4 1.3-5.5 6.1-22.5 2.5-9.1 4.8-17.2 4.9-18 .2-.8.4-1.6.5-1.8.2-.1.3-.5.4-1 .1-.4.8-3.2 1.6-6.2s1.3-5.8 1.2-6.3c-.1-.4.3-.7.9-.7.5 0 .7-.5.4-1-.4-.6-.1-1.7.5-2.5.7-.8 1-1.5.7-1.5-.3 0 .3-3 1.4-6.8 1.1-3.7 2.2-7.4 2.4-8.2 1.9-6.9 5.5-20 6-22 1.8-6.9 5.8-21.1 7.1-25.5.8-2.8 1.6-5.9 1.9-7 .9-4.1 5.3-20.1 6.1-22 1.2-3.1 2.1-3.3 7.7-1.8 2.9.7 6.1 1.5 7.2 1.7 1.1.2 4 .9 6.5 1.5 4.3.9 6.6 1.4 12.8 2.6 1.5.3 4.3 1 6.2 1.5 1.9.5 5.1 1.2 7 1.5 1.9.3 4.2.8 5 1 .8.2 2.6.7 4 .9 5.2 1.1 11.7 2.6 18.5 4.1 6.6 1.5 9.4 2.1 12.1 2.4 1.3.1 2.5 5.5 3.9 17.6.3 2.7.7 6.3 1 8 1.3 8.1 1.7 11.2 2 14 .5 3.9 1 7.5 3.1 20.6.3 2.3-.2 2.7-6.2 4.8-3.7 1.2-7.4 2.4-8.3 2.6-.9.2-9 2.6-18.1 5.5-16.4 5.1-18.8 5.8-20.2 5.9-1.4.2-.8 3.3 1.3 6.7 1.1 1.9 2.4 3.2 2.7 3 .4-.2 2.5-.7 4.7-1 2.2-.3 6.3-1 9-1.6 4.5-.8 6.8-1.2 14.5-2.5 1.4-.2 3.9-.6 5.5-.9 1.7-.3 4.6-.8 6.5-1.1 1.9-.3 4.2-.8 5-1 1.5-.4 9.7-1.6 13.5-2 1.8-.2 2-.9 1.9-6.1-.2-5.8-.8-17.3-1.9-34.9-.6-9.4-1.1-16.4-2-32.5-1-17.8-1.2-19-1.8-19.7-.4-.3-.3-1.1.3-1.7.5-.7.6-1.6.2-2.2-.7-1.1-14.6-6.1-14.8-5.3 0 .2-.8-.2-1.7-1-1-.7-1.7-1-1.7-.6s-.6.3-1.2-.2c-.7-.5-3.3-1.5-5.8-2.2-2.5-.7-5.4-1.8-6.5-2.3-1.2-.5-2.7-1-3.5-1.2-.8-.2-2.2-.6-3-.9-.8-.3-13.9-4.7-29-9.7-15.1-5-28.2-9.4-29-9.7-4.9-1.8-48.8-16.5-50.3-16.8-.9-.2-2.2-.7-2.7-1-2-1.2-6.9-2.3-7.5-1.7zm-25.4 290.9c-.6 2.6-1.3 5.9-1.5 7.3-.2 1.4-.7 3.2-1 4-.3.8-.7 2.8-1 4.5-.2 1.6-1.2 6.4-2.1 10.5-.9 4.1-1.7 8.3-1.8 9.2-.1 1.8-1 1.5-1.3-.5-.2-1.5-2.2-11.3-3-14.7-2.7-11.6-2.7-12.7.1-17.3 1.4-2.5 3.1-5 3.8-5.5 1.3-1.1 8-3.1 8.6-2.6.2.2-.2 2.5-.8 5.1zM554 491.9c3 1.7 6.6 3.7 8 4.4 1.4.6 2.7 1.4 3 1.8.3.3 3.2 2.1 6.5 3.8 12.8 6.9 14 7.6 14.3 8.3.2.5.7.8 1.2.8.4 0 6.3 3.1 13.1 7 6.7 3.8 12.6 7 13.1 7 .4 0 .8.4.8 1 0 .5.4 1 .9 1s4.3 2 8.6 4.4c7.2 4.1 7.9 4.3 11.8 3.4 2.3-.5 5.2-1.2 6.5-1.4 1.3-.3 7.6-1.6 14-3s12.8-2.8 14.2-3c1.4-.3 4.1-.9 6-1.4 1.9-.5 4.7-1.2 6.3-1.5 1.5-.3 3.7-.7 5-1 1.2-.2 3.4-.6 5-.9 1.5-.3 3.5-.7 4.5-1 .9-.3 2.9-.8 4.5-1.1 7-1.4 8.5-1.7 12.2-2.7 2.2-.5 4.7-1.1 5.5-1.3.8-.1 3.5-.6 6-1.1 2.5-.5 5-.9 5.5-1 .6-.1 1.2-.3 1.5-.4.3-.1 1.4-.3 2.4-.5 1.1-.2 3-.6 4.2-.9 2.1-.6 2.2-.4 1.7 3.1-.3 2.1-1 4.3-1.4 4.9-.7.9-.4 21.8.6 35.9.5 6.9 1.3 20.2 2 31 .3 4.9.8 12.1 1.1 16 .3 3.8.7 11 1 16 .2 4.9.6 11.7.8 15 .3 3.3.7 10.5 1.1 16 .3 5.5.8 14 1.1 19 .3 4.9.7 11.5.9 14.5.2 3 .6 9.7 1 14.8.3 5.1.8 12.4.9 16.1.2 3.8.5 7.2.8 7.7.5 1 .1 29.2-.5 34.4-.3 1.9-.7 6-1.1 9-.3 3-.8 6.6-1 8-.3 1.4-.7 5.4-1 9-.4 3.6-.8 7.5-1 8.5-.2 1.1-.7 5.1-1 9-.4 3.8-.9 8.3-1.1 10-.2 1.6-.7 5.5-1 8.5-.3 3-.8 7.5-1 10-.3 2.5-.8 6.5-1.1 9-.3 2.5-.7 5.8-.9 7.5-.2 1.6-.7 5.7-1 9-.5 5.6-.8 8.2-2.1 18-.3 2.2-.5 4.7-.5 5.5-.1.8-.5 4.6-1 8.5-.5 3.8-1.1 9.5-1.4 12.5-.9 8.7-1.4 13.3-1.9 16.5-.2 1.6-.7 6.1-1.1 10-.4 3.8-.9 8.1-1 9.5-.2 1.4-.6 4.7-.9 7.5-.3 2.7-.8 6.8-1 9-.3 2.2-.8 6.4-1.1 9.2-.3 2.9-.7 6.7-.9 8.5-.2 1.8-.7 6.4-1.1 10.3-.4 3.8-.9 7.7-1 8.5-.2.8-.6 5-1 9.2-.7 7.3-.9 7.8-3.1 7.8-1.3 0-2.4-.5-2.4-1.2 0-.6-.3-.9-.6-.6-.3.3-3.1-.1-6.2-.9s-6.6-1.7-7.7-1.8c-1.1-.2-2.9-.6-4-.8-4.9-1.2-22.6-4.7-28.5-5.7-3.6-.6-7.6-1.3-9-1.6-1.4-.2-4.3-.7-6.5-1-2.2-.3-5.1-.8-6.5-1-1.4-.3-4.3-.7-6.5-.9-2.2-.2-5.3-.6-7-.9-3-.6-8.3-1.2-18-2-6.3-.6-12.9-1.7-13.4-2.2-.3-.2-.6-1.2-.7-2.2-.1-.9-.5-4.8-.9-8.7-.4-3.8-.9-7.8-1.1-8.9-.2-1.1-.6-4.2-1-7-.3-2.8-.7-6-.9-7.1-.1-1.1-.6-4.3-.9-7-.4-2.8-.9-6.6-1.2-8.5-1-7.5-1.6-11.6-1.9-15-.2-1.9-.6-4.9-.9-6.5-.2-1.7-.8-5.7-1.1-9-.4-3.3-.8-7.1-1-8.5-1.1-7.6-1.5-11-2-16-.4-3-.8-6.2-1-7-.2-.8-.7-3.8-1-6.5-.3-2.8-.7-6.6-1-8.5-.2-1.9-.7-6-1.1-9-1-8.3-1.2-10.3-1.8-13-.6-3.2-1.8-13.6-2-17.3 0-1.5-.3-2.7-.6-2.7s-.6-1.7-.6-3.8c-.2-4.9-1.3-14.1-2-17.2-.3-1.4-.8-4.3-1-6.5-.5-5.1-1.1-10.1-1.8-14.5-.5-3.5-1.4-10.4-2.2-17-.9-8-1.5-12.6-1.9-15-.2-1.4-.7-4.8-1-7.5-1-9.6-2.1-17.9-2.9-22.5-.3-1.4-.7-5.2-1.1-8.5-.3-3.3-.8-7.1-1-8.5-.7-3.5-1.4-9.4-2.1-17-.3-3.6-.8-6.8-1-7.2-.2-.4-.7-3.3-1-6.5-.3-3.2-.8-6.9-.9-8.3-.7-5-1.6-11.6-2-14.5-.3-1.7-.7-5.3-1-8-.3-2.8-.7-6.4-1-8-.4-3.3-4.2-32.5-5.1-39.5-.3-2.5-.7-5.7-1-7.1-.2-1.5-.6-4.7-.9-7-.3-2.4-.8-6-1-7.9-.3-1.9-.8-5.9-1.1-8.9-.3-3-.7-6.3-1-7.4-.2-1.1-.6-4.5-.9-7.6-.4-3.1-.8-6.3-1-7.1-.3-.8-.7-4.2-1.1-7.5-.4-3.3-.8-7.1-.9-8.5-.3-2.3-1-8.4-2-15.5-.2-1.7-.7-5.3-1-8-.4-2.8-.9-6.3-1.1-7.8l-.5-2.8 5.3 2.9c2.9 1.6 7.8 4.3 10.8 6.1z"/></svg>